<svg xmlns="http://www.w3.org/2000/svg" xmlns:xlink="http://www.w3.org/1999/xlink" width="478" zoomAndPan="magnify" viewBox="0 0 358.5 64.499998" height="86" preserveAspectRatio="xMidYMid meet" version="1.0"><defs><g/></defs><g fill="#000000" fill-opacity="1"><g transform="translate(5.625676, 47.871095)"><g><path d="M 2.324219 -19.375 C 2.324219 -7.75 9.917969 0.773438 19.566406 0.773438 C 25.109375 0.773438 29.71875 -2.015625 32.664062 -6.898438 L 32.664062 -12.476562 C 32.664062 -18.675781 27.121094 -19.375 21.8125 -19.375 C 16.933594 -19.375 12.207031 -18.753906 12.207031 -21.347656 C 12.207031 -23.171875 14.414062 -23.984375 16.816406 -23.984375 C 20.652344 -23.984375 25.882812 -20.265625 30.53125 -20.265625 C 32.933594 -20.265625 35.066406 -21.621094 34.445312 -24.0625 C 34.445312 -24.0625 34.328125 -22.898438 31.617188 -22.898438 C 26.617188 -22.898438 23.441406 -26.425781 17.667969 -26.425781 C 15.34375 -26.425781 11.777344 -24.835938 11.777344 -21.542969 C 11.777344 -19.257812 13.988281 -18.910156 16.816406 -18.910156 C 22.007812 -18.910156 29.332031 -20.03125 29.332031 -12.476562 L 29.332031 -7.011719 C 29.332031 -5.617188 26.386719 0.308594 19.566406 0.308594 C 12.089844 0.308594 5.8125 -8.058594 5.8125 -19.375 C 5.8125 -30.6875 11.546875 -39.054688 19.566406 -39.054688 C 27.859375 -39.054688 30.222656 -32.546875 30.222656 -32.546875 L 30.609375 -32.546875 L 30.609375 -37.738281 C 27.625 -38.746094 24.332031 -39.519531 19.566406 -39.519531 C 9.917969 -39.519531 2.324219 -30.996094 2.324219 -19.375 Z M 2.324219 -19.375 "/></g></g></g><g fill="#000000" fill-opacity="1"><g transform="translate(41.307312, 47.871095)"><g><path d="M 11.625 0 L 11.625 -0.386719 C 8.292969 -0.386719 8.058594 -3.136719 8.058594 -10.773438 L 8.058594 -26.542969 C 10.269531 -27.238281 15.5 -27.664062 17.902344 -27.664062 C 20.691406 -27.664062 22.046875 -26.191406 22.046875 -24.410156 C 22.046875 -22.820312 21.039062 -21.542969 19.953125 -21.503906 C 19.953125 -20.417969 21 -19.722656 22.085938 -19.722656 C 24.292969 -19.722656 25.417969 -21.425781 25.417969 -23.480469 C 25.417969 -26.464844 22.859375 -28.207031 19.410156 -28.207031 C 15.109375 -28.207031 10.113281 -27.433594 5.65625 -27.433594 L 1.164062 -27.433594 L 1.164062 -27.046875 C 4.496094 -27.046875 4.726562 -24.292969 4.726562 -16.660156 L 4.726562 -10.773438 C 4.726562 -3.136719 4.496094 -0.386719 1.164062 -0.386719 L 1.164062 0 Z M 11.625 0 "/></g></g></g><g fill="#000000" fill-opacity="1"><g transform="translate(67.497087, 47.871095)"><g><path d="M 15.613281 0.773438 C 21.386719 0.773438 25.613281 -2.363281 27.625 -6.972656 L 27.082031 -7.207031 C 25.183594 -2.207031 20.070312 -0.542969 17.007812 -0.542969 C 9.878906 -0.542969 5.734375 -6.625 5.65625 -13.832031 C 5.578125 -19.296875 7.671875 -27.742188 15.539062 -27.742188 C 26.617188 -27.742188 26.464844 -12.824219 20.730469 -12.824219 C 17.628906 -12.824219 14.609375 -17.976562 10.539062 -17.976562 C 7.867188 -17.976562 6.46875 -16.46875 6.46875 -14.878906 L 6.625 -14.839844 C 6.742188 -15.148438 7.59375 -15.808594 8.523438 -15.808594 C 12.320312 -15.808594 14.21875 -12.359375 20.457031 -12.359375 C 24.914062 -12.359375 27.433594 -14.996094 27.472656 -19.375 C 27.511719 -23.285156 23.945312 -28.207031 15.613281 -28.207031 C 7.285156 -28.207031 2.324219 -21.699219 2.324219 -13.714844 C 2.324219 -5.734375 7.285156 0.773438 15.613281 0.773438 Z M 15.613281 0.773438 "/></g></g></g><g fill="#000000" fill-opacity="1"><g transform="translate(97.444865, 47.871095)"><g><path d="M 15.613281 0.773438 C 21.386719 0.773438 25.613281 -2.363281 27.625 -6.972656 L 27.082031 -7.207031 C 25.183594 -2.207031 20.070312 -0.542969 17.007812 -0.542969 C 9.878906 -0.542969 5.734375 -6.625 5.65625 -13.832031 C 5.578125 -19.296875 7.671875 -27.742188 15.539062 -27.742188 C 26.617188 -27.742188 26.464844 -12.824219 20.730469 -12.824219 C 17.628906 -12.824219 14.609375 -17.976562 10.539062 -17.976562 C 7.867188 -17.976562 6.46875 -16.46875 6.46875 -14.878906 L 6.625 -14.839844 C 6.742188 -15.148438 7.59375 -15.808594 8.523438 -15.808594 C 12.320312 -15.808594 14.21875 -12.359375 20.457031 -12.359375 C 24.914062 -12.359375 27.433594 -14.996094 27.472656 -19.375 C 27.511719 -23.285156 23.945312 -28.207031 15.613281 -28.207031 C 7.285156 -28.207031 2.324219 -21.699219 2.324219 -13.714844 C 2.324219 -5.734375 7.285156 0.773438 15.613281 0.773438 Z M 15.613281 0.773438 "/></g></g></g><g fill="#000000" fill-opacity="1"><g transform="translate(127.392642, 47.871095)"><g><path d="M 1.164062 -0.386719 L 1.164062 0 L 11.625 0 L 11.625 -0.386719 C 8.292969 -0.386719 8.058594 -3.136719 8.058594 -10.773438 L 8.058594 -26.542969 C 9.917969 -27.199219 12.089844 -27.664062 14.066406 -27.664062 C 16.699219 -27.664062 22.78125 -27.433594 22.78125 -18.753906 C 22.78125 -18.753906 22.820312 -11.933594 22.820312 -10.773438 C 22.820312 -3.136719 22.589844 -0.386719 19.257812 -0.386719 L 19.257812 0 L 29.71875 0 L 29.71875 -0.386719 C 26.386719 -0.386719 26.152344 -3.136719 26.152344 -10.773438 L 26.152344 -19.566406 C 26.152344 -27.703125 19.257812 -28.207031 15.808594 -28.207031 C 13.601562 -28.207031 8.757812 -27.433594 5.578125 -27.433594 L 1.164062 -27.433594 L 1.164062 -27.046875 C 4.496094 -27.046875 4.726562 -24.292969 4.726562 -16.660156 L 4.726562 -10.773438 C 4.726562 -3.136719 4.496094 -0.386719 1.164062 -0.386719 Z M 1.164062 -0.386719 "/></g></g></g><g fill="#000000" fill-opacity="1"><g transform="translate(157.882815, 47.871095)"><g/></g></g><g fill="#000000" fill-opacity="1"><g transform="translate(171.442608, 47.871095)"><g><path d="M 1.164062 -0.386719 L 1.164062 0 L 11.625 0 L 11.625 -0.386719 C 8.292969 -0.386719 8.058594 -3.136719 8.058594 -10.773438 L 8.058594 -19.023438 C 8.058594 -20.84375 8.757812 -22.433594 10.773438 -22.433594 C 13.523438 -22.433594 15.5 -19.023438 20.226562 -19.023438 C 23.285156 -19.023438 25.183594 -21 25.183594 -23.285156 L 24.796875 -23.285156 C 24.796875 -21.929688 23.402344 -21.078125 21.929688 -21.078125 C 18.519531 -21.078125 16.390625 -23.480469 12.554688 -23.480469 C 10.230469 -23.480469 8.523438 -22.242188 8.058594 -21.195312 L 8.058594 -38.359375 L 14.453125 -38.359375 C 23.363281 -38.359375 28.480469 -36.265625 28.480469 -33.671875 L 28.480469 -33.515625 L 28.867188 -33.515625 L 28.867188 -38.746094 L 1.164062 -38.746094 L 1.164062 -38.359375 C 4.496094 -38.359375 4.726562 -35.609375 4.726562 -27.976562 L 4.726562 -10.773438 C 4.726562 -3.136719 4.496094 -0.386719 1.164062 -0.386719 Z M 1.164062 -0.386719 "/></g></g></g><g fill="#000000" fill-opacity="1"><g transform="translate(201.467874, 47.871095)"><g><path d="M 11.625 0 L 11.625 -0.386719 C 8.292969 -0.386719 8.058594 -3.136719 8.058594 -10.773438 L 8.058594 -27.433594 L 1.164062 -27.433594 L 1.164062 -27.046875 C 4.496094 -27.046875 4.726562 -24.292969 4.726562 -16.660156 L 4.726562 -10.773438 C 4.726562 -3.136719 4.496094 -0.386719 1.164062 -0.386719 L 1.164062 0 Z M 3.601562 -32.507812 C 3.601562 -31.074219 4.765625 -29.914062 6.199219 -29.914062 C 7.632812 -29.914062 8.796875 -31.074219 8.796875 -32.507812 C 8.796875 -33.941406 7.632812 -35.105469 6.199219 -35.105469 C 4.765625 -35.105469 3.601562 -33.941406 3.601562 -32.507812 Z M 3.601562 -32.507812 "/></g></g></g><g fill="#000000" fill-opacity="1"><g transform="translate(213.865403, 47.871095)"><g><path d="M 0.773438 -27.433594 L 0.773438 -27.046875 L 4.339844 -27.046875 L 4.339844 -3.566406 C 4.339844 -1.007812 5.074219 0.773438 7.285156 0.773438 C 9.261719 0.773438 10.539062 -0.269531 11.546875 -1.9375 L 11.160156 -2.132812 C 11.160156 -2.132812 10.113281 -0.308594 8.910156 -0.308594 C 7.4375 -0.308594 7.671875 -2.402344 7.671875 -8.445312 L 7.671875 -27.046875 L 10.617188 -27.046875 L 10.617188 -27.433594 L 7.671875 -27.433594 L 7.671875 -36.808594 L 7.285156 -36.808594 C 7.285156 -34.175781 7.246094 -27.433594 0.773438 -27.433594 Z M 0.773438 -27.433594 "/></g></g></g><g fill="#000000" fill-opacity="1"><g transform="translate(226.185444, 47.871095)"><g/></g></g><g fill="#000000" fill-opacity="1"><g transform="translate(239.745248, 47.871095)"><g><path d="M 1.164062 -38.746094 L 1.164062 -38.359375 C 4.496094 -38.359375 4.726562 -35.609375 4.726562 -27.976562 L 4.726562 -10.773438 C 4.726562 -3.136719 4.496094 -0.386719 1.164062 -0.386719 L 1.164062 0 L 5.8125 0 C 10.074219 0 12.824219 0.773438 17.320312 0.773438 C 25.574219 0.773438 30.183594 -3.71875 30.183594 -10.421875 C 30.183594 -16.3125 25.339844 -20.109375 19.410156 -20.109375 C 15.691406 -20.109375 12.980469 -17.746094 11.351562 -17.746094 C 10.886719 -17.746094 10.230469 -17.863281 10.230469 -18.753906 C 10.230469 -23.054688 27.742188 -22.277344 27.742188 -32.390625 C 27.742188 -37.816406 22.746094 -39.519531 17.28125 -39.519531 C 13.871094 -39.519531 9.066406 -38.746094 5.65625 -38.746094 Z M 8.019531 -37.894531 C 10.269531 -38.589844 12.515625 -38.980469 15.035156 -38.980469 C 19.761719 -38.980469 24.410156 -37.121094 24.410156 -32.316406 C 24.410156 -24.488281 9.839844 -23.75 9.839844 -18.675781 C 9.839844 -17.746094 10.5 -17.359375 11.199219 -17.359375 C 13.484375 -17.359375 16.117188 -19.683594 19.375 -19.683594 C 24.214844 -19.683594 26.851562 -14.800781 26.851562 -10.152344 C 26.851562 -3.71875 22.316406 0.234375 15.109375 0.234375 C 12.242188 0.234375 10.382812 -0.15625 8.019531 -1.007812 Z M 8.019531 -37.894531 "/></g></g></g><g fill="#000000" fill-opacity="1"><g transform="translate(272.25002, 47.871095)"><g><path d="M 11.625 0 L 11.625 -0.386719 C 8.292969 -0.386719 8.058594 -3.136719 8.058594 -10.773438 L 8.058594 -27.433594 L 1.164062 -27.433594 L 1.164062 -27.046875 C 4.496094 -27.046875 4.726562 -24.292969 4.726562 -16.660156 L 4.726562 -10.773438 C 4.726562 -3.136719 4.496094 -0.386719 1.164062 -0.386719 L 1.164062 0 Z M 3.601562 -32.507812 C 3.601562 -31.074219 4.765625 -29.914062 6.199219 -29.914062 C 7.632812 -29.914062 8.796875 -31.074219 8.796875 -32.507812 C 8.796875 -33.941406 7.632812 -35.105469 6.199219 -35.105469 C 4.765625 -35.105469 3.601562 -33.941406 3.601562 -32.507812 Z M 3.601562 -32.507812 "/></g></g></g><g fill="#000000" fill-opacity="1"><g transform="translate(284.647549, 47.871095)"><g><path d="M 0.773438 -27.433594 L 0.773438 -27.046875 L 4.339844 -27.046875 L 4.339844 -3.566406 C 4.339844 -1.007812 5.074219 0.773438 7.285156 0.773438 C 9.261719 0.773438 10.539062 -0.269531 11.546875 -1.9375 L 11.160156 -2.132812 C 11.160156 -2.132812 10.113281 -0.308594 8.910156 -0.308594 C 7.4375 -0.308594 7.671875 -2.402344 7.671875 -8.445312 L 7.671875 -27.046875 L 10.617188 -27.046875 L 10.617188 -27.433594 L 7.671875 -27.433594 L 7.671875 -36.808594 L 7.285156 -36.808594 C 7.285156 -34.175781 7.246094 -27.433594 0.773438 -27.433594 Z M 0.773438 -27.433594 "/></g></g></g><g fill="#000000" fill-opacity="1"><g transform="translate(296.96759, 47.871095)"><g><path d="M 15.613281 0.773438 C 21.386719 0.773438 25.613281 -2.363281 27.625 -6.972656 L 27.082031 -7.207031 C 25.183594 -2.207031 20.070312 -0.542969 17.007812 -0.542969 C 9.878906 -0.542969 5.734375 -6.625 5.65625 -13.832031 C 5.578125 -19.296875 7.671875 -27.742188 15.539062 -27.742188 C 26.617188 -27.742188 26.464844 -12.824219 20.730469 -12.824219 C 17.628906 -12.824219 14.609375 -17.976562 10.539062 -17.976562 C 7.867188 -17.976562 6.46875 -16.46875 6.46875 -14.878906 L 6.625 -14.839844 C 6.742188 -15.148438 7.59375 -15.808594 8.523438 -15.808594 C 12.320312 -15.808594 14.21875 -12.359375 20.457031 -12.359375 C 24.914062 -12.359375 27.433594 -14.996094 27.472656 -19.375 C 27.511719 -23.285156 23.945312 -28.207031 15.613281 -28.207031 C 7.285156 -28.207031 2.324219 -21.699219 2.324219 -13.714844 C 2.324219 -5.734375 7.285156 0.773438 15.613281 0.773438 Z M 15.613281 0.773438 "/></g></g></g><g fill="#000000" fill-opacity="1"><g transform="translate(326.915367, 47.871095)"><g><path d="M 2.324219 -1.589844 C 4.804688 0 7.980469 0.773438 12.089844 0.773438 C 18.09375 0.773438 23.636719 -1.433594 23.636719 -7.128906 C 23.636719 -17.863281 5.113281 -14.179688 5.113281 -22.203125 C 5.113281 -25.109375 7.902344 -27.820312 12.785156 -27.820312 C 16.933594 -27.820312 20.34375 -25.378906 21.851562 -20.921875 L 22.007812 -20.921875 L 22.007812 -25.496094 C 22.007812 -25.496094 18.945312 -28.207031 12.398438 -28.207031 C 6.082031 -28.207031 2.867188 -25.109375 2.867188 -21.464844 C 2.867188 -10.578125 20.496094 -14.800781 20.496094 -6.625 C 20.496094 -2.167969 16.3125 0.308594 12.089844 0.386719 C 6.003906 0.503906 2.710938 -4.496094 2.710938 -6.316406 L 2.324219 -6.316406 Z M 2.324219 -1.589844 "/></g></g></g></svg>