<svg xmlns="http://www.w3.org/2000/svg" xmlns:xlink="http://www.w3.org/1999/xlink" width="6912" zoomAndPan="magnify" viewBox="0 0 5184 2592.000001" height="3456" preserveAspectRatio="xMidYMid meet" version="1.0"><defs><g/><clipPath id="65f1ee7466"><path d="M 1 0 L 5183 0 L 5183 2591 L 1 2591 Z M 1 0 " clip-rule="nonzero"/></clipPath></defs><g clip-path="url(#65f1ee7466)"><path fill="#ffffff" d="M 1 0 L 5183 0 L 5183 2598.496094 L 1 2598.496094 Z M 1 0 " fill-opacity="1" fill-rule="nonzero"/></g><path fill="#ffffff" d="M 1 0 L 5183 0 L 5183 2591 L 1 2591 Z M 1 0 " fill-opacity="1" fill-rule="nonzero"/><path fill="#ffffff" d="M 1 0 L 5183 0 L 5183 2591 L 1 2591 Z M 1 0 " fill-opacity="1" fill-rule="nonzero"/><g fill="#000000" fill-opacity="1"><g transform="translate(1292.882987, 1406.832283)"><g><path d="M 17.394531 -144.941406 C 17.394531 -57.976562 74.210938 5.796875 146.390625 5.796875 C 187.84375 5.796875 222.339844 -15.074219 244.371094 -51.597656 L 244.371094 -93.34375 C 244.371094 -139.722656 202.917969 -144.941406 163.203125 -144.941406 C 126.679688 -144.941406 91.3125 -140.304688 91.3125 -159.726562 C 91.3125 -173.351562 107.835938 -179.4375 125.808594 -179.4375 C 154.507812 -179.4375 193.640625 -151.609375 228.429688 -151.609375 C 246.402344 -151.609375 262.34375 -161.753906 257.707031 -180.015625 C 257.707031 -180.015625 256.835938 -171.320312 236.542969 -171.320312 C 199.148438 -171.320312 175.378906 -197.699219 132.1875 -197.699219 C 114.792969 -197.699219 88.125 -185.816406 88.125 -161.175781 C 88.125 -144.070312 104.648438 -141.464844 125.808594 -141.464844 C 164.652344 -141.464844 219.441406 -149.871094 219.441406 -93.34375 L 219.441406 -52.46875 C 219.441406 -42.03125 197.410156 2.320312 146.390625 2.320312 C 90.445312 2.320312 43.484375 -60.296875 43.484375 -144.941406 C 43.484375 -229.585938 86.386719 -292.203125 146.390625 -292.203125 C 208.425781 -292.203125 226.109375 -243.5 226.109375 -243.5 L 229.007812 -243.5 L 229.007812 -282.347656 C 206.6875 -289.882812 182.046875 -295.679688 146.390625 -295.679688 C 74.210938 -295.679688 17.394531 -231.90625 17.394531 -144.941406 Z M 17.394531 -144.941406 "/></g></g></g><g fill="#000000" fill-opacity="1"><g transform="translate(1559.864889, 1406.832283)"><g><path d="M 86.964844 0 L 86.964844 -2.898438 C 62.035156 -2.898438 60.296875 -23.480469 60.296875 -80.585938 L 60.296875 -198.570312 C 76.820312 -203.789062 115.953125 -206.976562 133.925781 -206.976562 C 154.796875 -206.976562 164.945312 -195.960938 164.945312 -182.625 C 164.945312 -170.742188 157.40625 -161.175781 149.289062 -160.886719 C 149.289062 -152.769531 157.117188 -147.550781 165.234375 -147.550781 C 181.757812 -147.550781 190.164062 -160.304688 190.164062 -175.667969 C 190.164062 -197.988281 171.03125 -211.035156 145.230469 -211.035156 C 113.054688 -211.035156 75.660156 -205.238281 42.324219 -205.238281 L 8.695312 -205.238281 L 8.695312 -202.339844 C 33.625 -202.339844 35.367188 -181.757812 35.367188 -124.648438 L 35.367188 -80.585938 C 35.367188 -23.480469 33.625 -2.898438 8.695312 -2.898438 L 8.695312 0 Z M 86.964844 0 "/></g></g></g><g fill="#000000" fill-opacity="1"><g transform="translate(1755.825606, 1406.832283)"><g><path d="M 116.824219 5.796875 C 160.015625 5.796875 191.613281 -17.683594 206.6875 -52.179688 L 202.628906 -53.917969 C 188.425781 -16.523438 150.160156 -4.058594 127.257812 -4.058594 C 73.921875 -4.058594 42.902344 -49.570312 42.324219 -103.488281 C 41.742188 -144.363281 57.398438 -207.554688 116.242188 -207.554688 C 199.148438 -207.554688 197.988281 -95.953125 155.085938 -95.953125 C 131.898438 -95.953125 109.285156 -134.503906 78.847656 -134.503906 C 58.847656 -134.503906 48.410156 -123.199219 48.410156 -111.316406 L 49.570312 -111.023438 C 50.441406 -113.34375 56.816406 -118.273438 63.773438 -118.273438 C 92.183594 -118.273438 106.386719 -92.472656 153.058594 -92.472656 C 186.394531 -92.472656 205.238281 -112.183594 205.527344 -144.941406 C 205.816406 -174.21875 179.148438 -211.035156 116.824219 -211.035156 C 54.496094 -211.035156 17.394531 -162.335938 17.394531 -102.617188 C 17.394531 -42.902344 54.496094 5.796875 116.824219 5.796875 Z M 116.824219 5.796875 "/></g></g></g><g fill="#000000" fill-opacity="1"><g transform="translate(1979.904869, 1406.832283)"><g><path d="M 116.824219 5.796875 C 160.015625 5.796875 191.613281 -17.683594 206.6875 -52.179688 L 202.628906 -53.917969 C 188.425781 -16.523438 150.160156 -4.058594 127.257812 -4.058594 C 73.921875 -4.058594 42.902344 -49.570312 42.324219 -103.488281 C 41.742188 -144.363281 57.398438 -207.554688 116.242188 -207.554688 C 199.148438 -207.554688 197.988281 -95.953125 155.085938 -95.953125 C 131.898438 -95.953125 109.285156 -134.503906 78.847656 -134.503906 C 58.847656 -134.503906 48.410156 -123.199219 48.410156 -111.316406 L 49.570312 -111.023438 C 50.441406 -113.34375 56.816406 -118.273438 63.773438 -118.273438 C 92.183594 -118.273438 106.386719 -92.472656 153.058594 -92.472656 C 186.394531 -92.472656 205.238281 -112.183594 205.527344 -144.941406 C 205.816406 -174.21875 179.148438 -211.035156 116.824219 -211.035156 C 54.496094 -211.035156 17.394531 -162.335938 17.394531 -102.617188 C 17.394531 -42.902344 54.496094 5.796875 116.824219 5.796875 Z M 116.824219 5.796875 "/></g></g></g><g fill="#000000" fill-opacity="1"><g transform="translate(2203.984132, 1406.832283)"><g><path d="M 8.695312 -2.898438 L 8.695312 0 L 86.964844 0 L 86.964844 -2.898438 C 62.035156 -2.898438 60.296875 -23.480469 60.296875 -80.585938 L 60.296875 -198.570312 C 74.210938 -203.496094 90.445312 -206.976562 105.226562 -206.976562 C 124.941406 -206.976562 170.453125 -205.238281 170.453125 -140.304688 C 170.453125 -140.304688 170.742188 -89.285156 170.742188 -80.585938 C 170.742188 -23.480469 169 -2.898438 144.070312 -2.898438 L 144.070312 0 L 222.339844 0 L 222.339844 -2.898438 C 197.410156 -2.898438 195.671875 -23.480469 195.671875 -80.585938 L 195.671875 -146.390625 C 195.671875 -207.265625 144.070312 -211.035156 118.273438 -211.035156 C 101.75 -211.035156 65.511719 -205.238281 41.742188 -205.238281 L 8.695312 -205.238281 L 8.695312 -202.339844 C 33.625 -202.339844 35.367188 -181.757812 35.367188 -124.648438 L 35.367188 -80.585938 C 35.367188 -23.480469 33.625 -2.898438 8.695312 -2.898438 Z M 8.695312 -2.898438 "/></g></g></g><g fill="#000000" fill-opacity="1"><g transform="translate(2432.121781, 1406.832283)"><g/></g></g><g fill="#000000" fill-opacity="1"><g transform="translate(2533.580742, 1406.832283)"><g><path d="M 8.695312 -2.898438 L 8.695312 0 L 86.964844 0 L 86.964844 -2.898438 C 62.035156 -2.898438 60.296875 -23.480469 60.296875 -80.585938 L 60.296875 -142.332031 C 60.296875 -155.957031 65.511719 -167.84375 80.585938 -167.84375 C 101.167969 -167.84375 115.953125 -142.332031 151.320312 -142.332031 C 174.21875 -142.332031 188.425781 -157.117188 188.425781 -174.21875 L 185.523438 -174.21875 C 185.523438 -164.074219 175.089844 -157.695312 164.074219 -157.695312 C 138.5625 -157.695312 122.621094 -175.667969 93.921875 -175.667969 C 76.527344 -175.667969 63.773438 -166.394531 60.296875 -158.566406 L 60.296875 -286.984375 L 108.125 -286.984375 C 174.800781 -286.984375 213.0625 -271.332031 213.0625 -251.910156 L 213.0625 -250.75 L 215.964844 -250.75 L 215.964844 -289.882812 L 8.695312 -289.882812 L 8.695312 -286.984375 C 33.625 -286.984375 35.367188 -266.402344 35.367188 -209.296875 L 35.367188 -80.585938 C 35.367188 -23.480469 33.625 -2.898438 8.695312 -2.898438 Z M 8.695312 -2.898438 "/></g></g></g><g fill="#000000" fill-opacity="1"><g transform="translate(2758.239816, 1406.832283)"><g><path d="M 86.964844 0 L 86.964844 -2.898438 C 62.035156 -2.898438 60.296875 -23.480469 60.296875 -80.585938 L 60.296875 -205.238281 L 8.695312 -205.238281 L 8.695312 -202.339844 C 33.625 -202.339844 35.367188 -181.757812 35.367188 -124.648438 L 35.367188 -80.585938 C 35.367188 -23.480469 33.625 -2.898438 8.695312 -2.898438 L 8.695312 0 Z M 26.960938 -243.210938 C 26.960938 -232.484375 35.65625 -223.789062 46.382812 -223.789062 C 57.105469 -223.789062 65.804688 -232.484375 65.804688 -243.210938 C 65.804688 -253.9375 57.105469 -262.632812 46.382812 -262.632812 C 35.65625 -262.632812 26.960938 -253.9375 26.960938 -243.210938 Z M 26.960938 -243.210938 "/></g></g></g><g fill="#000000" fill-opacity="1"><g transform="translate(2851.002242, 1406.832283)"><g><path d="M 5.796875 -205.238281 L 5.796875 -202.339844 L 32.46875 -202.339844 L 32.46875 -26.667969 C 32.46875 -7.535156 37.976562 5.796875 54.496094 5.796875 C 69.28125 5.796875 78.847656 -2.027344 86.386719 -14.496094 L 83.488281 -15.945312 C 83.488281 -15.945312 75.660156 -2.320312 66.671875 -2.320312 C 55.65625 -2.320312 57.398438 -17.972656 57.398438 -63.195312 L 57.398438 -202.339844 L 79.429688 -202.339844 L 79.429688 -205.238281 L 57.398438 -205.238281 L 57.398438 -275.390625 L 54.496094 -275.390625 C 54.496094 -255.675781 54.207031 -205.238281 5.796875 -205.238281 Z M 5.796875 -205.238281 "/></g></g></g><g fill="#000000" fill-opacity="1"><g transform="translate(2943.184814, 1406.832283)"><g/></g></g><g fill="#000000" fill-opacity="1"><g transform="translate(3044.643775, 1406.832283)"><g><path d="M 8.695312 -289.882812 L 8.695312 -286.984375 C 33.625 -286.984375 35.367188 -266.402344 35.367188 -209.296875 L 35.367188 -80.585938 C 35.367188 -23.480469 33.625 -2.898438 8.695312 -2.898438 L 8.695312 0 L 43.484375 0 C 75.371094 0 95.953125 5.796875 129.578125 5.796875 C 191.324219 5.796875 225.820312 -27.828125 225.820312 -77.980469 C 225.820312 -122.039062 189.582031 -150.449219 145.230469 -150.449219 C 117.402344 -150.449219 97.109375 -132.765625 84.9375 -132.765625 C 81.457031 -132.765625 76.527344 -133.636719 76.527344 -140.304688 C 76.527344 -172.480469 207.554688 -166.683594 207.554688 -242.34375 C 207.554688 -282.925781 170.160156 -295.679688 129.289062 -295.679688 C 103.777344 -295.679688 67.832031 -289.882812 42.324219 -289.882812 Z M 60.003906 -283.503906 C 76.820312 -288.722656 93.632812 -291.621094 112.476562 -291.621094 C 147.839844 -291.621094 182.625 -277.707031 182.625 -241.761719 C 182.625 -183.207031 73.628906 -177.699219 73.628906 -139.722656 C 73.628906 -132.765625 78.558594 -129.867188 83.777344 -129.867188 C 100.878906 -129.867188 120.589844 -147.261719 144.941406 -147.261719 C 181.175781 -147.261719 200.890625 -110.734375 200.890625 -75.949219 C 200.890625 -27.828125 166.972656 1.738281 113.054688 1.738281 C 91.601562 1.738281 77.6875 -1.160156 60.003906 -7.535156 Z M 60.003906 -283.503906 "/></g></g></g><g fill="#000000" fill-opacity="1"><g transform="translate(3287.855356, 1406.832283)"><g><path d="M 86.964844 0 L 86.964844 -2.898438 C 62.035156 -2.898438 60.296875 -23.480469 60.296875 -80.585938 L 60.296875 -205.238281 L 8.695312 -205.238281 L 8.695312 -202.339844 C 33.625 -202.339844 35.367188 -181.757812 35.367188 -124.648438 L 35.367188 -80.585938 C 35.367188 -23.480469 33.625 -2.898438 8.695312 -2.898438 L 8.695312 0 Z M 26.960938 -243.210938 C 26.960938 -232.484375 35.65625 -223.789062 46.382812 -223.789062 C 57.105469 -223.789062 65.804688 -232.484375 65.804688 -243.210938 C 65.804688 -253.9375 57.105469 -262.632812 46.382812 -262.632812 C 35.65625 -262.632812 26.960938 -253.9375 26.960938 -243.210938 Z M 26.960938 -243.210938 "/></g></g></g><g fill="#000000" fill-opacity="1"><g transform="translate(3380.617782, 1406.832283)"><g><path d="M 5.796875 -205.238281 L 5.796875 -202.339844 L 32.46875 -202.339844 L 32.46875 -26.667969 C 32.46875 -7.535156 37.976562 5.796875 54.496094 5.796875 C 69.28125 5.796875 78.847656 -2.027344 86.386719 -14.496094 L 83.488281 -15.945312 C 83.488281 -15.945312 75.660156 -2.320312 66.671875 -2.320312 C 55.65625 -2.320312 57.398438 -17.972656 57.398438 -63.195312 L 57.398438 -202.339844 L 79.429688 -202.339844 L 79.429688 -205.238281 L 57.398438 -205.238281 L 57.398438 -275.390625 L 54.496094 -275.390625 C 54.496094 -255.675781 54.207031 -205.238281 5.796875 -205.238281 Z M 5.796875 -205.238281 "/></g></g></g><g fill="#000000" fill-opacity="1"><g transform="translate(3472.800354, 1406.832283)"><g><path d="M 116.824219 5.796875 C 160.015625 5.796875 191.613281 -17.683594 206.6875 -52.179688 L 202.628906 -53.917969 C 188.425781 -16.523438 150.160156 -4.058594 127.257812 -4.058594 C 73.921875 -4.058594 42.902344 -49.570312 42.324219 -103.488281 C 41.742188 -144.363281 57.398438 -207.554688 116.242188 -207.554688 C 199.148438 -207.554688 197.988281 -95.953125 155.085938 -95.953125 C 131.898438 -95.953125 109.285156 -134.503906 78.847656 -134.503906 C 58.847656 -134.503906 48.410156 -123.199219 48.410156 -111.316406 L 49.570312 -111.023438 C 50.441406 -113.34375 56.816406 -118.273438 63.773438 -118.273438 C 92.183594 -118.273438 106.386719 -92.472656 153.058594 -92.472656 C 186.394531 -92.472656 205.238281 -112.183594 205.527344 -144.941406 C 205.816406 -174.21875 179.148438 -211.035156 116.824219 -211.035156 C 54.496094 -211.035156 17.394531 -162.335938 17.394531 -102.617188 C 17.394531 -42.902344 54.496094 5.796875 116.824219 5.796875 Z M 116.824219 5.796875 "/></g></g></g><g fill="#000000" fill-opacity="1"><g transform="translate(3696.879669, 1406.832283)"><g><path d="M 17.394531 -11.886719 C 35.945312 0 59.714844 5.796875 90.445312 5.796875 C 135.375 5.796875 176.828125 -10.726562 176.828125 -53.339844 C 176.828125 -133.636719 38.265625 -106.097656 38.265625 -166.101562 C 38.265625 -187.84375 59.136719 -208.136719 95.660156 -208.136719 C 126.679688 -208.136719 152.1875 -189.875 163.492188 -156.535156 L 164.652344 -156.535156 L 164.652344 -190.742188 C 164.652344 -190.742188 141.753906 -211.035156 92.761719 -211.035156 C 45.511719 -211.035156 21.453125 -187.84375 21.453125 -160.59375 C 21.453125 -79.136719 153.347656 -110.734375 153.347656 -49.570312 C 153.347656 -16.234375 122.039062 2.320312 90.445312 2.898438 C 44.933594 3.769531 20.292969 -33.625 20.292969 -47.25 L 17.394531 -47.25 Z M 17.394531 -11.886719 "/></g></g></g></svg>